<svg width="24" height="24" viewBox="0 0 24 24" fill="none" xmlns="http://www.w3.org/2000/svg">
<path d="M18.9375 7.26562H5.0625C3.51094 7.26562 2.25 8.52656 2.25 10.0781V17.9531C2.25 19.5047 3.51094 20.7656 5.0625 20.7656H18.9375C20.4891 20.7656 21.75 19.5047 21.75 17.9531V10.0781C21.75 8.52656 20.4891 7.26562 18.9375 7.26562Z" fill="#041A6F"/>
<path d="M16.0734 3.04685L5.0625 5.19841C4.21875 5.38591 3 6.23435 3 7.2656C3 7.2656 3.70312 6.37498 5.29688 6.37498H18.75V5.41404C18.75 4.82341 18.5156 4.06873 18.0984 3.65154C17.5688 3.12185 16.8094 2.89216 16.0734 3.04685Z" fill="#041A6F"/>
</svg>
