<svg width="24" height="24" viewBox="0 0 24 24" fill="none" xmlns="http://www.w3.org/2000/svg">
<path d="M18.2297 12.4828C17.9906 12.2484 17.9859 11.8594 18.225 11.6203L20.4375 9.37499H9.89062C9.55313 9.37499 9.28125 9.10312 9.28125 8.76562C9.28125 8.42812 9.55313 8.15624 9.89062 8.15624H20.4328L18.2203 5.91093C17.9859 5.67187 17.9859 5.28749 18.225 5.04843C18.4641 4.81405 18.8484 4.81405 19.0875 5.05312L22.3219 8.33437C22.3734 8.39062 22.4203 8.45155 22.4484 8.52655C22.4812 8.60155 22.4953 8.68124 22.4953 8.76093C22.4953 8.9203 22.4344 9.0703 22.3219 9.18749L19.0875 12.4687C18.8531 12.7125 18.4688 12.7172 18.2297 12.4828Z" fill="#041A6F"/>
<path d="M5.77026 18.9516C6.00933 18.7172 6.01401 18.3281 5.77495 18.0891L3.56714 15.8437H14.1093C14.4468 15.8437 14.7187 15.5719 14.7187 15.2344C14.7187 14.8969 14.4468 14.625 14.1093 14.625H3.56714L5.77964 12.3797C6.01401 12.1406 6.01401 11.7562 5.77495 11.5172C5.53589 11.2828 5.15151 11.2828 4.91245 11.5219L1.67808 14.8031C1.62651 14.8594 1.57964 14.9203 1.55151 14.9953C1.5187 15.0703 1.50464 15.15 1.50464 15.2297C1.50464 15.3891 1.56558 15.5391 1.67808 15.6562L4.91245 18.9375C5.14683 19.1812 5.5312 19.1859 5.77026 18.9516Z" fill="#041A6F"/>
</svg>
